<?xml version="1.0" standalone="no"?>
<!DOCTYPE svg PUBLIC "-//W3C//DTD SVG 20010904//EN"
 "http://www.w3.org/TR/2001/REC-SVG-20010904/DTD/svg10.dtd">
<svg version="1.0" xmlns="http://www.w3.org/2000/svg"
 width="512.000000pt" height="512.000000pt" viewBox="0 0 512.000000 512.000000"
 preserveAspectRatio="xMidYMid meet">
<metadata>
Created by potrace 1.14, written by Peter Selinger 2001-2017
</metadata>
<g transform="translate(0.000000,512.000000) scale(0.100000,-0.100000)"
fill="#000000" stroke="none">
<path d="M2643 5063 c-13 -2 -23 -8 -23 -13 0 -5 -7 -7 -15 -4 -8 4 -22 1 -30
-6 -8 -7 -22 -10 -30 -6 -8 3 -15 0 -15 -6 0 -6 -3 -8 -6 -5 -4 3 -15 2 -25
-4 -17 -8 -31 -12 -94 -21 -11 -2 -22 -6 -25 -10 -3 -4 -19 -9 -35 -12 -17 -2
-30 -5 -30 -6 0 -1 -11 -3 -25 -4 -14 -2 -35 -8 -47 -14 -12 -7 -26 -11 -30
-10 -4 1 -28 -5 -53 -12 -25 -8 -47 -14 -50 -15 -69 -15 -117 -29 -126 -36 -6
-5 -13 -7 -16 -4 -2 3 -20 0 -39 -6 -19 -6 -41 -12 -49 -14 -27 -4 -75 -18
-85 -23 -5 -4 -16 -7 -25 -8 -23 -3 -49 -10 -115 -30 -33 -10 -68 -18 -77 -17
-10 0 -18 -3 -18 -7 0 -5 -8 -7 -17 -5 -10 1 -30 -4 -45 -11 -15 -8 -31 -14
-35 -13 -4 1 -10 0 -13 -1 -9 -3 -44 -10 -62 -12 -10 -1 -18 -6 -18 -11 0 -5
-11 -7 -25 -5 -14 3 -25 1 -25 -4 0 -5 -4 -6 -10 -3 -5 3 -10 2 -10 -2 0 -5
-14 -9 -31 -9 -17 -1 -34 -6 -38 -11 -3 -5 -16 -8 -29 -7 -12 1 -22 -2 -22 -7
0 -4 -8 -8 -18 -8 -9 0 -35 -4 -57 -11 -47 -13 -75 -20 -95 -25 -8 -2 -17 -4
-20 -5 -3 -1 -8 -2 -12 -1 -4 0 -23 -6 -42 -14 -20 -8 -39 -15 -43 -14 -5 1
-11 0 -15 -1 -5 -1 -12 -4 -18 -5 -5 -1 -11 -3 -12 -4 -2 -2 -14 -5 -28 -8
-39 -7 -55 -11 -55 -13 0 -3 -41 -11 -57 -11 -10 0 -20 -4 -23 -10 -4 -5 -17
-9 -31 -9 -13 0 -24 -4 -24 -8 0 -5 -10 -8 -23 -7 -12 1 -37 -5 -56 -12 -18
-8 -36 -12 -39 -9 -3 3 -11 1 -19 -5 -7 -6 -13 -8 -13 -4 0 4 -6 3 -12 -3 -7
-5 -30 -12 -52 -15 -21 -3 -43 -11 -47 -19 -5 -7 -9 -10 -9 -5 0 4 -11 0 -25
-9 -14 -9 -25 -12 -26 -8 0 5 -4 1 -8 -9 -4 -10 -11 -18 -15 -17 -9 1 -26 -24
-52 -79 -11 -25 -14 -47 -9 -79 9 -63 11 -72 30 -125 9 -26 13 -52 10 -57 -3
-6 -2 -10 3 -10 5 0 9 -6 10 -12 3 -26 10 -63 12 -65 2 -2 3 -6 5 -10 1 -5 5
-15 8 -23 4 -8 8 -28 11 -45 2 -16 5 -30 6 -30 2 0 10 -36 12 -57 1 -10 5 -18
8 -18 4 0 7 -6 8 -12 1 -16 6 -36 31 -127 11 -41 18 -78 15 -82 -3 -5 -1 -9 4
-9 5 0 9 -10 8 -22 -1 -13 2 -26 6 -29 5 -3 11 -16 14 -30 9 -40 12 -54 14
-54 1 0 4 -13 6 -30 3 -16 10 -46 16 -65 7 -19 11 -39 10 -44 -2 -4 2 -14 9
-22 6 -7 8 -18 4 -24 -3 -5 -1 -10 4 -10 6 0 10 -3 9 -7 -4 -16 13 -93 20 -93
4 0 9 -10 10 -22 3 -45 11 -79 21 -92 6 -7 8 -16 5 -19 -4 -3 -3 -14 1 -24 8
-19 10 -25 19 -58 3 -11 10 -38 16 -60 6 -22 14 -51 17 -65 2 -14 7 -32 10
-40 3 -8 6 -24 6 -35 1 -11 4 -22 8 -25 4 -3 10 -17 13 -30 3 -14 9 -42 15
-62 5 -20 6 -39 3 -42 -3 -4 -1 -6 5 -6 5 0 10 -6 10 -12 0 -7 6 -33 12 -58 7
-25 13 -51 13 -57 1 -7 5 -13 9 -13 4 0 6 -8 4 -17 -1 -10 0 -22 4 -28 3 -5 6
-12 6 -15 4 -30 18 -87 25 -95 4 -5 8 -17 8 -25 0 -12 25 -115 36 -155 2 -5 5
-14 6 -20 1 -5 7 -21 12 -35 12 -30 17 -55 20 -93 1 -15 6 -27 10 -27 4 0 7
-3 6 -7 -1 -5 4 -26 10 -48 6 -22 13 -51 16 -65 2 -14 5 -27 6 -30 2 -3 2 -8
1 -12 0 -5 4 -8 10 -8 5 0 8 -4 5 -8 -5 -8 6 -59 22 -102 3 -8 6 -19 7 -25 2
-5 10 -39 20 -75 9 -36 18 -72 20 -80 2 -8 18 -64 35 -125 16 -60 32 -119 34
-130 2 -11 9 -35 15 -54 6 -19 9 -36 7 -39 -3 -2 2 -19 10 -38 8 -19 11 -34 8
-34 -4 0 -1 -7 6 -15 7 -9 10 -18 7 -22 -4 -3 -2 -12 4 -20 6 -7 9 -13 6 -13
-3 0 1 -16 9 -35 8 -19 11 -35 7 -35 -5 0 0 -5 10 -11 9 -6 15 -14 12 -19 -3
-5 4 -11 15 -15 11 -3 20 -10 20 -14 0 -12 59 -43 70 -36 6 3 10 1 10 -4 0
-13 107 -13 131 0 8 4 29 10 45 13 16 2 29 5 29 6 0 2 18 6 64 15 19 3 39 9
45 13 6 4 18 7 26 7 8 0 20 3 26 7 6 4 26 10 45 13 19 4 39 8 44 9 6 1 16 5
23 9 6 5 12 5 12 1 0 -3 6 -2 13 3 6 5 21 9 32 9 11 -1 22 2 25 6 3 4 19 9 35
12 17 3 43 8 60 12 16 3 35 9 41 15 6 5 19 7 28 3 9 -3 16 -2 16 3 0 9 112 38
138 36 6 0 12 4 12 9 0 5 8 8 18 7 9 -2 27 2 38 9 12 6 24 9 26 6 3 -2 18 1
34 7 16 7 32 12 35 11 4 -1 53 12 109 28 57 16 107 27 111 24 5 -3 9 -1 9 3 0
5 8 10 18 11 21 2 57 10 57 12 0 2 35 11 55 14 9 1 20 5 26 9 6 3 26 9 45 12
45 9 63 13 67 15 1 2 5 3 10 5 4 1 14 4 22 7 36 14 157 42 173 42 9 -1 17 3
17 8 0 6 9 8 20 5 10 -3 24 1 30 8 5 7 20 11 33 11 12 -1 27 2 33 6 7 5 26 10
43 11 17 1 31 6 31 11 0 5 3 7 6 3 3 -3 18 -1 33 5 33 13 61 20 84 21 9 1 17
4 17 7 0 3 14 7 31 8 17 1 46 9 64 16 18 8 36 12 39 9 3 -3 11 -1 18 4 7 6 29
13 48 17 19 4 46 10 59 12 13 3 37 12 53 20 30 15 107 88 109 102 3 29 11 58
19 66 13 13 13 53 -1 61 -6 4 -8 13 -5 21 3 8 2 14 -3 14 -4 0 -8 6 -9 13 0
10 -9 53 -16 82 -2 6 -6 17 -9 25 -4 8 -8 27 -11 42 -3 15 -7 31 -10 36 -3 5
-8 22 -10 38 -12 62 -15 73 -26 94 -6 12 -9 28 -6 36 3 8 0 14 -6 14 -6 0 -8
3 -5 6 3 4 1 16 -4 27 -6 11 -13 31 -15 46 -8 49 -11 66 -14 69 -1 1 -3 10 -5
20 -2 17 -7 33 -26 80 -5 13 -7 28 -4 33 4 5 2 9 -2 9 -5 0 -9 8 -10 18 -2 31
-14 77 -23 86 -5 5 -6 15 -3 22 3 8 0 20 -6 28 -7 8 -11 18 -10 22 2 9 -8 58
-18 84 -11 29 -14 45 -14 68 1 13 -4 20 -9 17 -9 -5 -14 27 -13 72 1 7 -4 10
-9 7 -6 -4 -8 -1 -6 7 3 8 -1 29 -8 47 -7 18 -13 36 -13 40 1 4 0 9 -1 12 -1
3 -3 12 -5 20 -2 8 -13 48 -24 88 -10 39 -17 72 -14 72 3 0 1 6 -4 13 -9 10
-18 44 -29 102 -1 6 -3 15 -4 20 -1 6 -2 13 -1 18 0 4 -3 7 -8 7 -5 0 -8 8 -7
18 2 9 -4 27 -12 40 -11 17 -12 22 -1 22 10 0 10 3 1 12 -7 7 -12 20 -12 30 0
10 -3 18 -7 18 -5 0 -9 12 -10 28 -4 42 -8 61 -16 68 -4 4 -7 17 -7 29 0 12
-3 25 -7 29 -7 7 -10 18 -17 66 -2 14 -11 43 -20 63 -8 20 -12 37 -8 37 3 0 1
5 -5 11 -6 6 -9 18 -6 25 3 8 0 20 -6 28 -7 8 -11 18 -10 22 1 5 0 11 -1 14
-3 9 -11 45 -14 65 -2 11 -6 27 -9 35 -12 29 -31 105 -30 118 0 6 -2 12 -6 12
-4 0 -7 8 -8 18 0 9 -4 28 -8 42 -4 14 -8 34 -8 45 -1 11 -6 23 -11 27 -5 3
-10 19 -11 35 -2 15 -4 29 -5 31 -1 1 -3 5 -4 10 -1 8 -22 79 -38 130 -5 19
-11 44 -13 55 -7 42 -16 81 -23 91 -3 6 -8 20 -10 31 -5 29 -10 50 -12 50 -2
0 -9 29 -15 60 -13 67 -17 81 -27 92 -6 8 -8 16 -5 20 4 3 2 13 -3 23 -5 9
-12 32 -16 51 -8 45 -12 63 -14 67 -2 1 -3 5 -4 10 -6 26 -40 102 -46 102 -4
0 -11 11 -14 25 -4 16 -11 22 -21 19 -8 -4 -15 -1 -15 5 0 10 -29 26 -70 39
-26 7 -84 10 -107 5z"/>
<path d="M3307 4082 c-3 -7 -2 -29 3 -34 1 -2 3 -10 5 -18 1 -8 9 -35 16 -60
7 -25 12 -49 10 -54 -1 -4 2 -13 7 -20 5 -6 8 -19 7 -28 -2 -10 1 -20 6 -24 5
-3 9 -15 9 -28 0 -12 3 -26 7 -30 8 -8 14 -34 14 -58 0 -10 5 -20 10 -23 5 -4
7 -10 4 -15 -3 -5 0 -20 6 -32 7 -13 14 -34 16 -48 5 -45 6 -50 13 -50 3 0 7
-10 7 -22 1 -23 20 -99 31 -128 3 -8 6 -18 7 -22 2 -5 4 -10 5 -13 4 -7 5 -14
14 -62 4 -24 11 -43 14 -43 4 0 8 -12 9 -27 3 -51 7 -72 14 -67 6 4 19 -51 20
-88 0 -10 4 -18 8 -18 5 0 7 -11 6 -25 -2 -14 1 -25 5 -25 5 0 9 -8 8 -17 0
-10 7 -39 15 -65 9 -25 13 -49 10 -52 -4 -3 -1 -6 6 -6 7 0 10 -4 7 -8 -3 -5
4 -38 15 -73 10 -35 20 -74 21 -86 1 -13 5 -23 9 -23 4 0 6 -11 4 -25 -1 -14
2 -25 6 -25 5 0 9 -13 9 -28 0 -16 3 -32 7 -36 7 -6 11 -24 15 -58 1 -10 6
-18 11 -18 5 0 7 -6 4 -12 -2 -7 0 -24 5 -38 6 -14 12 -34 14 -45 2 -11 6 -29
8 -41 2 -11 11 -37 20 -57 8 -21 11 -35 6 -32 -7 4 -7 -2 -1 -17 19 -47 24
-64 28 -88 2 -14 8 -36 12 -50 8 -22 19 -66 21 -80 0 -3 11 -41 25 -85 14 -44
25 -92 25 -107 0 -16 5 -28 10 -28 6 0 10 -6 8 -12 -3 -14 21 -107 32 -123 9
-14 7 -187 -3 -202 -5 -7 -5 -17 -2 -23 3 -5 2 -10 -3 -10 -5 0 -17 -20 -28
-45 -10 -25 -22 -45 -26 -45 -4 0 -8 -6 -8 -13 0 -7 -14 -23 -31 -37 -17 -14
-37 -31 -44 -38 -8 -6 -21 -12 -30 -12 -9 0 -13 -4 -10 -10 3 -5 0 -10 -7 -10
-7 0 -24 -6 -38 -13 -14 -7 -47 -19 -75 -26 -27 -7 -57 -16 -65 -19 -8 -3 -23
-6 -32 -7 -10 -2 -19 -3 -20 -5 -4 -2 -41 -11 -55 -12 -7 -1 -13 -6 -13 -11 0
-6 -3 -8 -6 -4 -3 3 -25 0 -49 -8 -24 -7 -46 -10 -49 -7 -3 2 -11 0 -18 -5 -7
-6 -24 -13 -38 -16 -21 -5 -63 -15 -130 -33 -13 -3 -52 -13 -115 -30 -11 -3
-27 -7 -35 -9 -8 -2 -15 -4 -15 -5 0 -2 -37 -11 -70 -16 -16 -2 -33 -8 -38
-13 -5 -5 -16 -7 -23 -4 -8 3 -14 1 -14 -5 0 -6 -8 -9 -17 -7 -10 1 -23 -2
-29 -7 -7 -5 -16 -8 -20 -6 -5 1 -19 -3 -31 -10 -13 -7 -23 -8 -23 -3 0 5 -12
4 -26 -4 -15 -7 -33 -11 -40 -8 -8 3 -14 0 -14 -6 0 -6 -3 -10 -7 -10 -5 1
-10 0 -13 -1 -3 -1 -14 -3 -25 -5 -11 -2 -38 -9 -60 -15 -22 -6 -50 -12 -62
-14 -13 -2 -29 -8 -36 -15 -8 -6 -16 -9 -19 -6 -2 3 -25 -1 -51 -9 -25 -7 -48
-11 -51 -8 -4 3 -6 1 -6 -4 0 -6 -10 -11 -22 -11 -28 -2 -111 -24 -118 -32 -4
-5 -16 -7 -82 -14 -10 -1 -18 -4 -18 -8 0 -4 -12 -9 -27 -12 -44 -9 -57 -12
-68 -18 -5 -4 -18 -5 -27 -4 -10 2 -18 0 -18 -4 0 -4 -10 -8 -23 -9 -13 -1
-51 -10 -83 -20 -33 -10 -68 -18 -77 -16 -9 1 -17 -1 -17 -6 0 -4 -12 -10 -27
-13 -24 -4 -48 -10 -88 -21 -71 -19 -95 -28 -101 -38 -4 -7 -3 -8 4 -4 6 4 20
2 30 -3 11 -6 30 -12 43 -15 13 -3 49 -12 79 -21 30 -9 62 -16 70 -17 8 0 21
-5 27 -10 7 -6 19 -8 28 -5 8 4 17 2 20 -3 4 -6 15 -10 26 -10 10 0 19 -4 19
-10 0 -5 7 -7 15 -4 8 3 20 2 27 -2 7 -5 24 -10 37 -12 14 -2 32 -7 42 -13 10
-5 29 -9 43 -9 14 0 28 -5 31 -11 4 -6 13 -8 21 -5 7 3 16 1 20 -5 3 -6 12 -8
20 -5 7 3 16 1 19 -4 4 -6 16 -10 29 -10 12 0 26 -3 30 -7 4 -4 19 -9 33 -11
15 -2 34 -7 44 -13 10 -5 28 -9 42 -9 13 0 27 -3 31 -7 7 -7 30 -14 56 -15 8
-1 17 -4 20 -8 3 -4 21 -11 40 -14 82 -14 100 -19 100 -25 0 -4 10 -7 23 -8
12 -1 47 -9 77 -18 30 -10 65 -17 78 -17 12 0 22 -5 22 -10 0 -6 9 -8 20 -5
11 3 20 1 20 -4 0 -5 9 -9 19 -9 11 0 22 -4 26 -10 3 -5 12 -7 20 -3 9 3 21 0
29 -6 7 -6 16 -8 19 -4 4 3 13 0 22 -7 8 -7 15 -10 15 -6 0 3 15 0 33 -7 17
-8 38 -12 45 -10 6 3 12 0 12 -6 0 -5 9 -8 20 -6 11 2 20 1 20 -3 0 -4 12 -9
27 -10 15 -1 29 -5 32 -10 3 -4 17 -8 31 -9 48 -4 60 -7 60 -15 0 -4 3 -7 8
-6 10 3 115 -23 127 -32 6 -4 18 -6 28 -5 9 2 17 0 17 -5 0 -5 11 -7 25 -5 14
1 25 -2 25 -6 0 -5 9 -9 19 -9 11 0 23 -5 26 -10 4 -6 10 -8 14 -5 5 2 31 -2
59 -10 54 -16 152 -17 152 -1 0 5 3 6 7 3 8 -8 73 31 94 57 9 11 24 47 34 80
9 34 19 68 22 76 4 8 6 18 5 22 -1 4 3 19 8 33 5 14 12 38 15 53 2 15 9 28 14
30 6 2 7 10 4 18 -3 8 -2 22 3 32 4 9 8 24 9 32 3 28 17 70 24 70 3 0 7 10 7
23 1 12 4 31 7 42 3 11 10 40 17 65 6 25 16 63 21 85 6 22 12 48 14 57 2 9 8
26 14 37 6 11 11 30 11 44 0 13 3 27 7 31 4 3 8 14 9 24 4 30 9 47 17 60 5 6
6 12 3 12 -3 0 -1 11 4 25 10 25 20 65 24 95 1 9 5 20 8 26 4 6 9 21 12 35 2
13 11 44 19 69 7 25 12 51 9 58 -2 6 1 12 8 12 6 0 10 6 9 13 -2 12 8 59 18
87 4 8 7 23 8 33 2 9 3 18 5 20 1 1 3 11 5 21 2 10 10 23 17 27 8 6 9 9 1 9
-6 0 -9 9 -6 20 3 11 8 20 12 20 4 0 8 10 8 23 2 27 7 49 14 62 8 12 23 87 21
98 -1 4 2 7 6 7 4 0 8 8 9 18 0 9 4 26 7 37 6 22 26 101 31 125 2 8 4 16 5 18
2 1 3 5 5 10 1 4 5 15 10 25 4 10 5 21 2 24 -4 3 0 15 8 25 7 11 11 27 8 34
-3 8 -1 14 3 14 5 0 10 10 11 23 4 36 9 56 16 63 4 4 7 18 7 31 0 13 4 23 9
23 4 0 6 11 4 24 -3 13 0 27 6 30 5 4 8 13 4 21 -3 8 0 15 6 15 6 0 11 11 11
24 0 14 5 28 10 31 6 4 8 11 4 16 -3 5 2 35 12 67 10 31 19 68 21 82 3 13 8
29 12 35 5 5 7 18 6 28 -2 9 0 17 4 17 4 0 8 6 9 13 6 43 9 57 15 63 4 4 7 18
7 30 0 13 5 26 10 29 6 4 8 10 5 15 -3 4 2 26 10 49 8 23 12 41 9 41 -2 0 2
16 10 35 8 19 13 35 11 35 -3 0 0 12 6 28 6 15 12 34 14 42 17 77 27 115 33
124 4 6 7 18 7 26 0 8 4 21 8 28 5 6 6 12 3 12 -3 0 1 18 9 39 7 22 11 42 8
45 -4 3 -2 6 3 6 5 0 10 8 11 18 1 9 3 24 6 32 2 8 8 34 12 58 4 23 10 42 14
42 20 0 -5 148 -29 170 -3 3 -13 17 -23 33 -10 15 -24 27 -31 27 -8 0 -16 5
-18 11 -2 7 -18 12 -36 13 -17 0 -34 7 -37 14 -3 7 -10 10 -15 7 -6 -4 -40 3
-75 14 -35 12 -73 21 -85 21 -11 0 -20 3 -20 8 0 4 -10 8 -22 8 -23 2 -40 6
-68 17 -20 7 -59 17 -95 23 -16 3 -36 10 -42 16 -7 6 -22 8 -33 5 -11 -3 -20
-1 -20 4 0 5 -9 9 -19 9 -11 0 -32 5 -48 12 -15 6 -35 13 -43 14 -40 5 -70 13
-89 24 -12 6 -21 8 -21 4 0 -3 -6 -2 -12 3 -7 6 -20 11 -28 11 -20 1 -49 8
-82 21 -16 6 -28 8 -28 6 0 -2 -12 0 -27 6 -16 6 -37 12 -48 14 -11 2 -45 11
-75 20 -30 9 -62 18 -70 19 -8 2 -22 6 -30 9 -8 4 -26 8 -40 11 -14 2 -36 8
-50 14 -14 5 -31 7 -37 5 -7 -3 -13 -1 -13 4 0 10 -38 15 -43 5z"/>
<path d="M4690 2564 c0 -9 3 -14 7 -11 3 4 15 0 25 -10 10 -9 20 -14 22 -12 2
2 -10 14 -25 27 -25 21 -29 21 -29 6z"/>
<path d="M4663 2472 c0 -12 5 -22 9 -22 11 0 10 12 -2 30 -7 12 -9 10 -7 -8z"/>
<path d="M4915 2340 c10 -11 20 -20 23 -20 3 0 -3 9 -13 20 -10 11 -20 20 -23
20 -3 0 3 -9 13 -20z"/>
<path d="M4627 2333 c-10 -9 -9 -23 1 -23 5 0 9 7 9 15 0 17 -1 18 -10 8z"/>
<path d="M4950 2310 c0 -5 5 -10 11 -10 5 0 7 5 4 10 -3 6 -8 10 -11 10 -2 0
-4 -4 -4 -10z"/>
<path d="M4610 2275 c0 -8 4 -15 10 -15 5 0 7 7 4 15 -4 8 -8 15 -10 15 -2 0
-4 -7 -4 -15z"/>
<path d="M4970 2286 c0 -2 8 -10 18 -17 15 -13 16 -12 3 4 -13 16 -21 21 -21
13z"/>
<path d="M5010 2251 c0 -6 4 -13 10 -16 6 -3 7 1 4 9 -7 18 -14 21 -14 7z"/>
<path d="M4586 2187 c3 -10 9 -15 12 -12 3 3 0 11 -7 18 -10 9 -11 8 -5 -6z"/>
<path d="M5090 2165 c13 -14 26 -25 28 -25 3 0 -5 11 -18 25 -13 14 -26 25
-28 25 -3 0 5 -11 18 -25z"/>
<path d="M4577 2143 c-4 -3 -7 -11 -7 -17 0 -6 5 -5 12 2 6 6 9 14 7 17 -3 3
-9 2 -12 -2z"/>
<path d="M4546 2037 c3 -10 9 -15 12 -12 3 3 0 11 -7 18 -10 9 -11 8 -5 -6z"/>
<path d="M4530 2005 c0 -5 5 -17 10 -25 5 -8 10 -10 10 -5 0 6 -5 17 -10 25
-5 8 -10 11 -10 5z"/>
<path d="M4521 1934 c0 -11 3 -14 6 -6 3 7 2 16 -1 19 -3 4 -6 -2 -5 -13z"/>
<path d="M4511 1894 c0 -11 3 -14 6 -6 3 7 2 16 -1 19 -3 4 -6 -2 -5 -13z"/>
<path d="M4490 1839 c0 -5 5 -7 10 -4 6 3 10 8 10 11 0 2 -4 4 -10 4 -5 0 -10
-5 -10 -11z"/>
<path d="M4470 1749 c0 -5 5 -7 10 -4 6 3 10 8 10 11 0 2 -4 4 -10 4 -5 0 -10
-5 -10 -11z"/>
<path d="M4443 1655 c0 -8 4 -12 9 -9 4 3 8 9 8 15 0 5 -4 9 -8 9 -5 0 -9 -7
-9 -15z"/>
<path d="M4434 1615 c-3 -8 -4 -20 -2 -27 3 -7 7 -1 10 15 6 29 1 36 -8 12z"/>
<path d="M4407 1525 c-4 -8 -3 -16 1 -19 4 -3 9 4 9 15 2 23 -3 25 -10 4z"/>
<path d="M4381 1424 c0 -11 3 -14 6 -6 3 7 2 16 -1 19 -3 4 -6 -2 -5 -13z"/>
<path d="M4355 1330 c3 -5 8 -10 11 -10 2 0 4 5 4 10 0 6 -5 10 -11 10 -5 0
-7 -4 -4 -10z"/>
<path d="M4343 1275 c-3 -9 -3 -18 -1 -21 3 -3 8 4 11 16 6 23 -1 27 -10 5z"/>
<path d="M4313 1185 c0 -8 4 -15 9 -15 4 0 8 7 8 15 0 8 -4 15 -8 15 -5 0 -9
-7 -9 -15z"/>
<path d="M4304 1136 c1 -8 5 -18 8 -22 4 -3 5 1 4 10 -1 8 -5 18 -8 22 -4 3
-5 -1 -4 -10z"/>
<path d="M4291 1084 c0 -11 3 -14 6 -6 3 7 2 16 -1 19 -3 4 -6 -2 -5 -13z"/>
<path d="M4275 1040 c-3 -5 -1 -10 4 -10 6 0 11 5 11 10 0 6 -2 10 -4 10 -3 0
-8 -4 -11 -10z"/>
<path d="M4271 994 c0 -11 3 -14 6 -6 3 7 2 16 -1 19 -3 4 -6 -2 -5 -13z"/>
<path d="M4250 950 c0 -5 5 -10 11 -10 5 0 7 5 4 10 -3 6 -8 10 -11 10 -2 0
-4 -4 -4 -10z"/>
<path d="M4224 856 c1 -8 5 -18 8 -22 4 -3 5 1 4 10 -1 8 -5 18 -8 22 -4 3 -5
-1 -4 -10z"/>
<path d="M4214 800 c0 -13 4 -16 10 -10 7 7 7 13 0 20 -6 6 -10 3 -10 -10z"/>
<path d="M4192 710 c0 -14 2 -19 5 -12 2 6 2 18 0 25 -3 6 -5 1 -5 -13z"/>
<path d="M4170 661 c0 -6 4 -12 8 -15 5 -3 9 1 9 9 0 8 -4 15 -9 15 -4 0 -8
-4 -8 -9z"/>
<path d="M4150 559 c0 -5 5 -7 10 -4 6 3 10 8 10 11 0 2 -4 4 -10 4 -5 0 -10
-5 -10 -11z"/>
<path d="M4142 520 c0 -14 2 -19 5 -12 2 6 2 18 0 25 -3 6 -5 1 -5 -13z"/>
<path d="M1410 471 c15 -26 48 -61 56 -61 4 0 -3 11 -15 24 l-23 24 22 4 c18
2 15 5 -14 14 -31 9 -34 9 -26 -5z"/>
<path d="M4123 471 c0 -11 5 -18 9 -15 4 3 5 11 1 19 -7 21 -12 19 -10 -4z"/>
<path d="M1488 453 c7 -3 16 -2 19 1 4 3 -2 6 -13 5 -11 0 -14 -3 -6 -6z"/>
<path d="M1575 429 c-3 -4 2 -6 10 -5 21 3 28 13 10 13 -9 0 -18 -4 -20 -8z"/>
<path d="M4110 420 c0 -5 5 -10 11 -10 5 0 7 5 4 10 -3 6 -8 10 -11 10 -2 0
-4 -4 -4 -10z"/>
<path d="M1628 413 c7 -3 16 -2 19 1 4 3 -2 6 -13 5 -11 0 -14 -3 -6 -6z"/>
<path d="M1715 390 c3 -5 8 -10 11 -10 2 0 4 5 4 10 0 6 -5 10 -11 10 -5 0 -7
-4 -4 -10z"/>
<path d="M1828 363 c7 -3 16 -2 19 1 4 3 -2 6 -13 5 -11 0 -14 -3 -6 -6z"/>
<path d="M1530 353 c0 -5 10 -18 23 -29 l22 -19 -20 25 c-11 14 -21 27 -22 29
-2 2 -3 0 -3 -6z"/>
<path d="M1866 348 c3 -4 9 -8 15 -8 5 0 9 4 9 8 0 5 -7 9 -15 9 -8 0 -12 -4
-9 -9z"/>
<path d="M4087 329 c4 -13 8 -18 11 -10 2 7 -1 18 -6 23 -8 8 -9 4 -5 -13z"/>
<path d="M1958 323 c7 -3 16 -2 19 1 4 3 -2 6 -13 5 -11 0 -14 -3 -6 -6z"/>
<path d="M2008 313 c7 -3 16 -2 19 1 4 3 -2 6 -13 5 -11 0 -14 -3 -6 -6z"/>
<path d="M2055 300 c3 -5 8 -10 11 -10 2 0 4 5 4 10 0 6 -5 10 -11 10 -5 0 -7
-4 -4 -10z"/>
<path d="M2106 292 c-3 -5 1 -9 9 -9 8 0 12 4 9 9 -3 4 -7 8 -9 8 -2 0 -6 -4
-9 -8z"/>
<path d="M4070 279 c0 -5 5 -7 10 -4 6 3 10 8 10 11 0 2 -4 4 -10 4 -5 0 -10
-5 -10 -11z"/>
<path d="M2148 273 c7 -3 16 -2 19 1 4 3 -2 6 -13 5 -11 0 -14 -3 -6 -6z"/>
<path d="M2190 259 c0 -5 5 -7 10 -4 6 3 10 8 10 11 0 2 -4 4 -10 4 -5 0 -10
-5 -10 -11z"/>
<path d="M2250 249 c0 -5 5 -7 10 -4 6 3 10 8 10 11 0 2 -4 4 -10 4 -5 0 -10
-5 -10 -11z"/>
<path d="M2290 240 c-13 -8 -12 -10 3 -10 9 0 17 5 17 10 0 12 -1 12 -20 0z"/>
<path d="M1650 226 c0 -2 8 -10 18 -17 15 -13 16 -12 3 4 -13 16 -21 21 -21
13z"/>
<path d="M2420 198 c0 -4 7 -8 15 -8 8 0 15 4 15 8 0 5 -7 9 -15 9 -8 0 -15
-4 -15 -9z"/>
<path d="M4049 208 c-5 -18 -6 -38 -1 -34 7 8 12 36 6 36 -2 0 -4 -1 -5 -2z"/>
<path d="M2478 183 c7 -3 16 -2 19 1 4 3 -2 6 -13 5 -11 0 -14 -3 -6 -6z"/>
<path d="M1700 166 c0 -2 7 -7 16 -10 8 -3 12 -2 9 4 -6 10 -25 14 -25 6z"/>
<path d="M2570 160 c0 -5 5 -10 10 -10 6 0 10 5 10 10 0 6 -4 10 -10 10 -5 0
-10 -4 -10 -10z"/>
<path d="M2620 150 c-9 -6 -10 -10 -3 -10 6 0 15 5 18 10 8 12 4 12 -15 0z"/>
<path d="M2670 129 c0 -5 5 -7 10 -4 6 3 10 8 10 11 0 2 -4 4 -10 4 -5 0 -10
-5 -10 -11z"/>
<path d="M2710 122 c0 -5 7 -9 15 -9 8 0 15 4 15 9 0 4 -7 8 -15 8 -8 0 -15
-4 -15 -8z"/>
<path d="M4022 115 c4 -4 -2 -21 -13 -36 -11 -16 -17 -29 -12 -29 4 0 16 13
25 30 12 22 14 31 5 36 -7 4 -9 4 -5 -1z"/>
<path d="M1787 86 c10 -13 19 -23 21 -21 5 5 -22 45 -31 45 -4 0 0 -11 10 -24z"/>
<path d="M2845 80 c4 -6 11 -8 16 -5 14 9 11 15 -7 15 -8 0 -12 -5 -9 -10z"/>
<path d="M2900 70 c-9 -6 -10 -10 -3 -10 6 0 15 5 18 10 8 12 4 12 -15 0z"/>
<path d="M1832 44 c10 -10 20 -16 22 -13 3 3 -5 11 -17 18 -21 13 -21 12 -5
-5z"/>
<path d="M2948 53 c7 -3 16 -2 19 1 4 3 -2 6 -13 5 -11 0 -14 -3 -6 -6z"/>
<path d="M2988 43 c6 -2 18 -2 25 0 6 3 1 5 -13 5 -14 0 -19 -2 -12 -5z"/>
<path d="M3038 33 c7 -3 16 -2 19 1 4 3 -2 6 -13 5 -11 0 -14 -3 -6 -6z"/>
<path d="M3979 23 c-13 -16 -12 -17 4 -4 16 13 21 21 13 21 -2 0 -10 -8 -17
-17z"/>
<path d="M3128 3 c6 -2 18 -2 25 0 6 3 1 5 -13 5 -14 0 -19 -2 -12 -5z"/>
</g>
</svg>
